<?xml version="1.0" encoding="UTF-8"?>
<svg width="256" height="256" viewBox="0 0 256 256" xmlns="http://www.w3.org/2000/svg">
  <defs>
    <linearGradient id="bg" x1="0%" y1="0%" x2="100%" y2="100%">
      <stop offset="0%" style="stop-color:#667eea;stop-opacity:1" />
      <stop offset="100%" style="stop-color:#764ba2;stop-opacity:1" />
    </linearGradient>
    <linearGradient id="mic" x1="0%" y1="0%" x2="100%" y2="100%">
      <stop offset="0%" style="stop-color:#ff6b6b;stop-opacity:1" />
      <stop offset="100%" style="stop-color:#ee5a52;stop-opacity:1" />
    </linearGradient>
  </defs>
  
  <!-- Fondo circular -->
  <circle cx="128" cy="128" r="120" fill="url(#bg)" stroke="#ffffff" stroke-width="8"/>
  
  <!-- Micrófono -->
  <g transform="translate(128, 128)">
    <!-- Cuerpo del micrófono -->
    <rect x="-20" y="-40" width="40" height="60" rx="20" ry="20" fill="url(#mic)"/>
    
    <!-- Base del micrófono -->
    <path d="M -35 25 Q -35 45 0 45 Q 35 45 35 25" stroke="url(#mic)" stroke-width="6" fill="none"/>
    
    <!-- Línea vertical -->
    <line x1="0" y1="45" x2="0" y2="65" stroke="url(#mic)" stroke-width="6"/>
    
    <!-- Base -->
    <line x1="-25" y1="65" x2="25" y2="65" stroke="url(#mic)" stroke-width="6" stroke-linecap="round"/>
    
    <!-- Ondas de sonido -->
    <path d="M -50 -10 Q -60 0 -50 10" stroke="#ffffff" stroke-width="4" fill="none" opacity="0.8"/>
    <path d="M -60 -20 Q -75 0 -60 20" stroke="#ffffff" stroke-width="4" fill="none" opacity="0.6"/>
    <path d="M 50 -10 Q 60 0 50 10" stroke="#ffffff" stroke-width="4" fill="none" opacity="0.8"/>
    <path d="M 60 -20 Q 75 0 60 20" stroke="#ffffff" stroke-width="4" fill="none" opacity="0.6"/>
  </g>
</svg>
