<?xml version="1.0" standalone="no"?>
<!DOCTYPE svg PUBLIC "-//W3C//DTD SVG 20010904//EN"
 "http://www.w3.org/TR/2001/REC-SVG-20010904/DTD/svg10.dtd">
<svg version="1.0" xmlns="http://www.w3.org/2000/svg"
 width="256.000000pt" height="256.000000pt" viewBox="0 0 256.000000 256.000000"
 preserveAspectRatio="xMidYMid meet">

<g transform="translate(0.000000,256.000000) scale(0.100000,-0.100000)"
fill="#000000" stroke="none">
<path d="M1141 1608 c-487 -560 -521 -602 -521 -640 0 -71 117 -188 188 -188
34 0 65 24 362 281 179 154 338 293 354 308 l28 29 -63 33 c-81 43 -175 136
-217 217 -18 34 -35 62 -37 62 -3 0 -45 -46 -94 -102z"/>
<path d="M1325 867 c-70 -23 -87 -37 -265 -213 -96 -95 -188 -177 -203 -183
-73 -28 -147 -1 -194 68 -31 46 -31 116 0 162 l23 34 -58 57 -57 57 -30 -42
c-116 -170 -56 -396 128 -481 35 -16 65 -21 131 -21 125 0 157 20 365 225 94
92 180 173 192 179 35 18 102 13 143 -10 67 -38 97 -123 69 -196 -6 -15 -46
-65 -90 -109 -89 -92 -100 -124 -54 -169 43 -44 68 -35 171 66 116 114 138
159 139 274 0 93 -21 148 -80 213 -75 83 -225 123 -330 89z"/>
</g>
</svg>
